<?xml version="1.0" encoding="UTF-8"?>
<svg width="512" height="512" viewBox="0 0 512 512" fill="none"
    xmlns="http://www.w3.org/2000/svg">
    <!-- Orange Car SVG recreation of the isometric car -->
    <g transform="translate(56, 106) scale(0.8)">
        <!-- Car Body -->
        <path d="M250 200L100 300L400 300L500 200L250 200Z" fill="#FF5722"/>
        <!-- Car Top -->
        <path d="M250 200L370 100L500 200L250 200Z" fill="#E64A19"/>
        <!-- Left Side Body -->
        <path d="M100 300L100 350L200 400L400 400L400 300L100 300Z" fill="#FF5722"/>
        <!-- Front Bumper -->
        <path d="M400 300L400 400L500 320L500 200L400 300Z" fill="#BF360C"/>
        <!-- Wheels -->
        <circle cx="175" cy="380" r="40" fill="#424242"/>
        <circle cx="175" cy="380" r="20" fill="#BDBDBD"/>
        <circle cx="350" cy="380" r="40" fill="#424242"/>
        <circle cx="350" cy="380" r="20" fill="#BDBDBD"/>
        <!-- Windows -->
        <path d="M260 220L370 130L460 200L260 220Z" fill="#795548"/>
        <!-- Headlights -->
        <rect x="480" y="250" width="30" height="20" fill="#FFFFFF"/>
        <rect x="480" y="290" width="30" height="20" fill="#FFFFFF"/>
        <!-- Side Detail -->
        <rect x="120" y="320" width="100" height="20" fill="#BF360C"/>
    </g>
</svg> 